<svg width="24" height="24" viewBox="0 0 24 24" fill="none" xmlns="http://www.w3.org/2000/svg">
  <path d="M23.6429 14.9057C23.0682 17.2083 21.8237 19.2889 20.0666 20.8842C18.3096 22.4795 16.119 23.5181 13.7717 23.8685C11.4245 24.2189 9.02606 23.8654 6.8797 22.8528C4.73334 21.8401 2.93544 20.2138 1.71334 18.1794C0.491245 16.145 -0.100176 13.7939 0.0138664 11.4234C0.127908 9.05285 0.942291 6.76939 2.35404 4.8617C3.76579 2.95401 5.7115 1.50776 7.94516 0.705832C10.1788 -0.0960978 12.6001 -0.217698 14.9029 0.356406C16.4324 0.737289 17.8719 1.41585 19.139 2.35331C20.4062 3.29077 21.4761 4.46876 22.2878 5.81993C23.0995 7.17111 23.6369 8.66899 23.8694 10.228C24.102 11.787 24.025 13.3765 23.6429 14.9057Z" fill="#F7931A"/>
  <path d="M17.2924 10.2925C17.5303 8.69506 16.3144 7.83443 14.6518 7.26393L15.1929 5.0993L13.8889 4.7733L13.3641 6.87926L12.2948 6.64128L12.8229 4.52229L11.5189 4.19629L10.981 6.36092C10.6942 6.29572 10.4138 6.23052 10.14 6.16206L8.32416 5.70892L7.97534 7.11397C7.97534 7.11397 8.95333 7.33891 8.93051 7.35195C9.11295 7.37326 9.27962 7.46565 9.39436 7.60907C9.5091 7.7525 9.56265 7.93539 9.54339 8.11805L8.92725 10.5924L8.06662 14.0447C8.04947 14.1064 8.02007 14.1639 7.98017 14.214C7.94026 14.264 7.89068 14.3055 7.83438 14.3359C7.77808 14.3663 7.71621 14.3851 7.65249 14.3911C7.58877 14.3971 7.5245 14.3901 7.46352 14.3707C7.46352 14.3903 6.50508 14.1327 6.50508 14.1327L5.85309 15.6421L7.56784 16.0691C7.89384 16.1474 8.19702 16.2321 8.50346 16.3104L7.95904 18.4978L9.26303 18.8238L9.80419 16.6592C10.1628 16.757 10.5116 16.845 10.8506 16.9298L10.3127 19.0846L11.6167 19.4106L12.1644 17.2264C14.4073 17.6502 16.0992 17.4807 16.8066 15.4497C17.3804 13.8198 16.7805 12.8711 15.5972 12.255C16.4578 12.0561 17.1065 11.4889 17.2793 10.3218L17.2924 10.2925ZM14.2834 14.5109C13.8759 16.1409 11.1245 15.2639 10.2312 15.039L10.9517 12.1409C11.8449 12.3625 14.7072 12.7929 14.2834 14.5109ZM14.6909 10.2729C14.3193 11.7627 12.0275 11.0064 11.2842 10.8206L11.9362 8.18977C12.6828 8.36907 15.0788 8.71463 14.6909 10.2664V10.2729Z" fill="white"/>
  </svg>