<?xml version="1.0" encoding="utf-8"?>
<!-- Generator: Adobe Illustrator 27.5.0, SVG Export Plug-In . SVG Version: 6.00 Build 0)  -->
<svg version="1.1" id="Capa_1" xmlns="http://www.w3.org/2000/svg" xmlns:xlink="http://www.w3.org/1999/xlink" x="0px" y="0px"
	 viewBox="0 0 2122 2122" style="enable-background:new 0 0 2122 2122;" xml:space="preserve">
<g>
	<polygon style="fill:#FDC333;" points="1540.652,680.344 1540.652,436.508 1198.086,436.508 1060.66,338.691 923.238,436.508 
		580.668,436.508 580.668,680.344 354.781,841.129 354.781,1782.633 1766.543,1782.633 1766.543,841.129 	"/>
	<polygon style="fill:#EFEFE7;" points="1540.652,959.91 1206.77,1135.484 1060.66,1032.16 917.406,1155.438 580.668,967.32 
		580.668,436.508 1540.652,436.508 	"/>
	<polygon style="fill:#F7A633;" points="354.781,841.129 354.781,1782.633 927.68,1223.195 	"/>
	<polygon style="fill:#F7A633;" points="1193.641,1223.195 1766.543,1782.633 1766.543,841.129 	"/>
	<polygon style="fill:#F39232;" points="1060.66,1093.34 927.68,1223.195 354.781,1782.633 1766.543,1782.633 1193.641,1223.195 	
		"/>
	<polygon style="fill:#E67D2F;" points="354.781,841.129 927.68,1223.195 1060.66,1093.34 1193.641,1223.195 1766.543,841.129 
		1206.77,1135.484 1060.66,1032.16 917.406,1155.438 	"/>
	<g>
		<rect x="703.949" y="606.977" style="fill:#D8D8DA;" width="329.508" height="23.465"/>
		<rect x="1237.766" y="606.977" style="fill:#D8D8DA;" width="179.605" height="23.465"/>
		<rect x="1065.648" y="606.977" style="fill:#D8D8DA;" width="124.723" height="23.465"/>
		<rect x="703.949" y="787.828" style="fill:#D8D8DA;" width="329.508" height="23.465"/>
		<rect x="1065.648" y="787.828" style="fill:#D8D8DA;" width="124.723" height="23.465"/>
		<rect x="703.949" y="728.68" style="fill:#D8D8DA;" width="244.457" height="23.465"/>
		<rect x="1237.766" y="728.68" style="fill:#D8D8DA;" width="179.605" height="23.465"/>
		<rect x="980.602" y="728.68" style="fill:#D8D8DA;" width="209.77" height="23.465"/>
		<rect x="703.949" y="672.34" style="fill:#D8D8DA;" width="164.75" height="23.465"/>
		<rect x="1128.008" y="672.34" style="fill:#D8D8DA;" width="289.363" height="23.465"/>
		<rect x="900.894" y="672.34" style="fill:#D8D8DA;" width="179.719" height="23.465"/>
		<rect x="703.949" y="875.695" style="fill:#D8D8DA;" width="329.508" height="23.465"/>
		<rect x="1237.766" y="875.695" style="fill:#D8D8DA;" width="179.605" height="23.465"/>
		<rect x="1065.648" y="875.695" style="fill:#D8D8DA;" width="124.723" height="23.465"/>
		<rect x="703.949" y="997.398" style="fill:#D8D8DA;" width="244.457" height="23.465"/>
		<rect x="1237.766" y="997.398" style="fill:#D8D8DA;" width="179.605" height="23.465"/>
		<rect x="980.602" y="997.398" style="fill:#D8D8DA;" width="209.77" height="23.465"/>
		<rect x="703.949" y="941.059" style="fill:#D8D8DA;" width="164.75" height="23.465"/>
		<rect x="1128.008" y="941.059" style="fill:#D8D8DA;" width="289.363" height="23.465"/>
		<rect x="900.894" y="941.059" style="fill:#D8D8DA;" width="179.719" height="23.465"/>
	</g>
</g>
</svg>
